<svg width="55" height="16" viewBox="0 0 55 16" fill="none" xmlns="http://www.w3.org/2000/svg">
<path fill-rule="evenodd" clip-rule="evenodd" d="M2.27612 1.01894C3.70075 0.327389 5.41616 0.921835 6.10762 2.34667L8.11354 6.48017L10.152 2.33355C10.8506 0.912259 12.5691 0.326552 13.9901 1.02534C15.4112 1.72413 15.9969 3.4428 15.2982 4.86408L10.67 14.2788C10.1866 15.2622 9.18523 15.884 8.08961 15.8812C6.99403 15.8785 5.99578 15.2515 5.51741 14.2657L0.948585 4.85097C0.257135 3.42615 0.851494 1.71049 2.27612 1.01894ZM22.7705 0.731132C23.8661 0.73392 24.8643 1.36088 25.3427 2.34667L29.9115 11.7614C30.3428 12.6501 30.2864 13.6983 29.7621 14.5356C29.2379 15.3728 28.3197 15.8813 27.332 15.8813H18.135C17.1447 15.8813 16.2245 15.3701 15.701 14.5294C15.1776 13.6886 15.125 12.6371 15.5619 11.7483L20.1901 2.33355C20.6735 1.35022 21.6749 0.728343 22.7705 0.731132ZM33.2289 3.59883C33.2289 2.01504 34.5126 0.731122 36.0962 0.731122H40.1537C40.2331 0.731122 40.3129 0.73444 40.3923 0.741066L41.5325 0.836299C41.8753 0.8649 42.4816 0.946694 43.119 1.2839C46.4403 3.03989 46.4403 7.8371 43.119 9.59308C42.4816 9.93027 41.8753 10.0121 41.5325 10.0407L40.3923 10.1359C40.3129 10.1425 40.2331 10.1459 40.1537 10.1459H38.9634V13.0136C38.9634 14.5974 37.6797 15.8813 36.0962 15.8813C34.5126 15.8813 33.2289 14.5974 33.2289 13.0136V3.59883ZM51.2442 0.731122C52.8276 0.731122 54.1113 2.01504 54.1113 3.59883V13.0136C54.1113 14.5974 52.8276 15.8813 51.2442 15.8813C49.6604 15.8813 48.377 14.5974 48.377 13.0136V3.59883C48.377 2.01504 49.6604 0.731122 51.2442 0.731122ZM22.7399 10.1459H22.7532L22.7466 10.1322L22.7399 10.1459Z" fill="#F6DDAD"/>
</svg>
