<svg width="13" height="13" viewBox="0 0 13 13" fill="none" xmlns="http://www.w3.org/2000/svg">
<path d="M8.86222 7.61645V9.14045C8.86222 11.1725 8.04941 11.9853 6.0174 11.9853H4.087C2.05499 11.9853 1.24219 11.1725 1.24219 9.14045V7.21005C1.24219 5.17804 2.05499 4.36523 4.087 4.36523H5.611" stroke="#F3EEE3" stroke-width="1.17764" stroke-linecap="round" stroke-linejoin="round"/>
<path d="M8.86449 7.61645H7.23889C6.01968 7.61645 5.61328 7.21005 5.61328 5.99084V4.36523L8.86449 7.61645Z" stroke="#F3EEE3" stroke-width="1.17764" stroke-linecap="round" stroke-linejoin="round"/>
<path d="M6.12109 1.82617H8.1531" stroke="#F3EEE3" stroke-width="1.17764" stroke-linecap="round" stroke-linejoin="round"/>
<path d="M3.78516 3.35018C3.78516 2.50689 4.46588 1.82617 5.30916 1.82617H6.64013" stroke="#F3EEE3" stroke-width="1.17764" stroke-linecap="round" stroke-linejoin="round"/>
<path d="M11.404 4.87109V8.01563C11.404 8.80303 10.764 9.44311 9.97656 9.44311" stroke="#F3EEE3" stroke-width="1.17764" stroke-linecap="round" stroke-linejoin="round"/>
<path d="M11.3996 4.87418H9.87557C8.73256 4.87418 8.35156 4.49318 8.35156 3.35018V1.82617L11.3996 4.87418Z" stroke="#F3EEE3" stroke-width="1.17764" stroke-linecap="round" stroke-linejoin="round"/>
</svg>
