<svg width="9" height="16" viewBox="0 0 9 16" fill="none" xmlns="http://www.w3.org/2000/svg">
<path d="M5.95395 3.88574C5.95395 4.03613 6.07476 4.15809 6.22323 4.15809H7.47762V4.97285H6.22323C6.14909 4.97285 6.08186 5.00339 6.03308 5.05236C5.98429 5.10192 5.95395 5.16972 5.95395 5.2452C5.95395 5.3954 6.07476 5.51736 6.22323 5.51736H7.47762V6.3323H6.22323C6.14909 6.3323 6.08186 6.36284 6.03308 6.41182C5.98429 6.46137 5.95395 6.52917 5.95395 6.60446C5.95395 6.75485 6.07476 6.87682 6.22323 6.87682H7.47762V7.99446C7.47762 9.55828 6.22323 10.8263 4.67631 10.8263C3.1292 10.8263 1.875 9.55828 1.875 7.99446V6.87682H3.12613C3.27498 6.87682 3.39541 6.75485 3.39541 6.60446C3.39541 6.52917 3.36545 6.46137 3.31666 6.41182C3.26788 6.36284 3.20065 6.3323 3.12613 6.3323H1.875L1.875 5.51736H3.12613C3.27498 5.51736 3.39541 5.3954 3.39541 5.2452C3.39541 5.16972 3.36545 5.10192 3.31666 5.05236C3.26788 5.00339 3.20065 4.97285 3.12613 4.97285H1.875V4.15809H3.12613C3.27498 4.15809 3.39541 4.03613 3.39541 3.88574C3.39541 3.73535 3.27498 3.61339 3.12613 3.61339H1.875V2.94403C1.875 1.37983 3.1292 0.112183 4.67631 0.112183C5.44977 0.112183 6.15005 0.429287 6.65711 0.941532C7.16398 1.45397 7.47762 2.16193 7.47762 2.94403V3.61339H6.22323C6.07476 3.61339 5.95395 3.73535 5.95395 3.88574Z" fill="#6366F1"/>
<path d="M8.59455 5.92822C8.39326 5.92822 8.2302 6.09302 8.2302 6.29622V7.99545C8.2302 8.48061 8.13608 8.95176 7.95055 9.39563C7.77116 9.82394 7.51475 10.2086 7.18823 10.5386C6.86191 10.8688 6.48142 11.1279 6.05791 11.309C5.61884 11.4967 5.1525 11.5919 4.67252 11.5919C4.19274 11.5919 3.7264 11.4967 3.28771 11.309C2.86382 11.1279 2.48352 10.8688 2.15701 10.5386C1.83049 10.2086 1.57408 9.82394 1.39508 9.39563C1.20915 8.95176 1.11504 8.48061 1.11504 7.99545V6.29622C1.11504 6.09302 0.951975 5.92822 0.750688 5.92822C0.549784 5.92822 0.386719 6.09302 0.386719 6.29622L0.386719 7.99545C0.386719 8.57972 0.500423 9.14709 0.724182 9.68258C0.940067 10.1985 1.24872 10.6619 1.64207 11.0593C2.03505 11.4567 2.49332 11.7688 3.00403 11.9874C3.42139 12.1658 3.85854 12.2747 4.30855 12.3128V15.1452C4.30855 15.1584 4.30932 15.1719 4.31067 15.1847H1.99817C1.79707 15.1847 1.63401 15.3497 1.63401 15.5531C1.63401 15.7563 1.79707 15.9211 1.99817 15.9211H7.34726C7.54816 15.9211 7.71123 15.7563 7.71123 15.5531C7.71123 15.3497 7.54816 15.1847 7.34726 15.1847H5.03457C5.03611 15.1719 5.03688 15.1584 5.03688 15.1452L5.03688 12.3128C5.4867 12.2747 5.92423 12.1658 6.34159 11.9874C6.85192 11.7688 7.31019 11.4567 7.70316 11.0593C8.09652 10.6619 8.40536 10.1985 8.62106 9.68258C8.84501 9.14709 8.95852 8.57972 8.95852 7.99545V6.29622C8.95852 6.09302 8.79545 5.92822 8.59455 5.92822Z" fill="#6366F1"/>
</svg>
