<svg width="20" height="24" viewBox="0 0 20 24" fill="none" xmlns="http://www.w3.org/2000/svg">
<path d="M4.46087 16.0287C1.60906 11.9559 -0.215557 7.52831 0.356873 4.28189C0.622882 2.81997 1.3574 1.64686 2.65731 0.820742C3.44551 0.324876 4.28746 0.0858188 5.03905 0.218345C5.61481 0.319865 6.11904 0.639646 6.40981 1.23504L8.26068 5.13962C8.5449 5.72566 8.64181 6.20446 8.56196 6.61085C8.4783 7.132 8.09268 7.5422 7.50008 7.95714L6.55664 8.63174C6.40614 8.73712 6.33938 8.88196 6.3046 9.03251C6.25755 9.20559 6.30936 9.3796 6.35362 9.50285C6.65093 10.2479 7.42534 11.6541 8.50546 13.1966C9.59221 14.7487 10.6139 15.9677 11.2499 16.4755C11.344 16.5498 11.4927 16.642 11.6592 16.6796C11.8191 16.7078 11.9621 16.6918 12.1126 16.5864L13.0786 15.924C13.6777 15.5185 14.1951 15.2964 14.7068 15.3867C15.1226 15.46 15.5394 15.7148 15.9929 16.1823L18.9866 19.2165C19.4692 19.7057 19.6011 20.3144 19.5005 20.9314C19.3774 21.6765 18.8807 22.3886 18.132 22.9409C16.8819 23.8582 15.502 24.1096 14.0627 23.8559C10.8097 23.274 7.3127 20.1015 4.46087 16.0287Z" fill="white"/>
</svg>
