<svg width="101" height="45" viewBox="0 0 101 45" fill="none" xmlns="http://www.w3.org/2000/svg">
<g clip-path="url(#clip0_665_46536)">
<path d="M68.621 0.457291C68.621 0.457291 72.3942 2.13753 72.888 5.20775C73.3817 8.27797 68.4919 10.8275 66.5553 6.52876C66.2116 5.76563 66.6693 4.16791 67.6883 2.97567C68.6984 1.79379 68.621 0.457291 68.621 0.457291Z" fill="#FFDD74"/>
<path d="M68.315 5.05084C68.315 5.05084 68.7931 5.82213 69.1642 5.77118C69.5353 5.72023 70.0898 5.19756 69.5055 3.20556C68.9214 1.21372 73.2042 4.97364 70.7078 7.30223C68.2115 9.63082 67.2415 5.81601 68.315 5.05084Z" fill="#FF8A2A"/>
</g>
<mask id="mask0_665_46536" style="mask-type:luminance" maskUnits="userSpaceOnUse" x="-1" y="7" width="29" height="31">
<path d="M-0.0078125 7.55322H27.6403V37.8206H-0.0078125V7.55322Z" fill="white"/>
</mask>
<g mask="url(#mask0_665_46536)">
<mask id="mask1_665_46536" style="mask-type:luminance" maskUnits="userSpaceOnUse" x="-4" y="5" width="33" height="35">
<path d="M1.56284 5.37598L28.8335 10.078L23.8371 39.0664L-3.43359 34.3655L1.56284 5.37598Z" fill="white"/>
</mask>
<g mask="url(#mask1_665_46536)">
<mask id="mask2_665_46536" style="mask-type:luminance" maskUnits="userSpaceOnUse" x="-4" y="5" width="33" height="35">
<path d="M1.56284 5.37598L28.8335 10.078L23.8371 39.0664L-3.43359 34.3655L1.56284 5.37598Z" fill="white"/>
</mask>
<g mask="url(#mask2_665_46536)">
<mask id="mask3_665_46536" style="mask-type:luminance" maskUnits="userSpaceOnUse" x="-4" y="5" width="33" height="35">
<path d="M1.56284 5.37598L28.8335 10.078L23.8371 39.0664L-3.43359 34.3655L1.56284 5.37598Z" fill="white"/>
</mask>
<g mask="url(#mask3_665_46536)">
<path d="M13.8469 37.309C11.9631 36.9839 10.151 36.3245 8.74471 35.4514C7.61583 34.7614 6.62222 33.9315 5.79005 32.9845C5.42967 32.5695 5.05792 32.1455 4.68163 31.7214C4.04158 30.9984 3.38108 30.2504 2.7831 29.5307C1.59509 28.021 0.787933 26.2691 0.382079 24.3115C-0.749082 18.8592 1.7804 12.6531 6.26753 9.87808C9.11419 8.03753 12.826 7.33951 16.4423 7.9625C18.2453 8.27286 19.9347 8.88448 21.4672 9.78372C22.4244 10.3465 23.2475 10.9899 23.9125 11.6936L23.8943 11.7118C24.5298 12.2836 26.7944 14.9507 26.8183 14.9825C27.4129 15.6192 27.6914 16.4979 27.5606 17.3756C27.4401 18.1975 26.9763 18.9421 26.2862 19.4208C26.2862 19.4208 24.0626 20.9578 24.0319 20.9805C23.4168 21.4239 22.6154 21.6058 21.8309 21.4705C21.0477 21.3352 20.436 20.9521 19.9972 20.3757C19.4367 19.7891 18.6159 19.3787 17.6883 19.2195C17.0425 19.1081 16.3889 19.1252 15.8 19.2684C14.3323 19.5924 13.4478 20.6019 12.967 21.3921C12.1598 22.7085 11.8756 24.4058 12.2064 25.8576C12.4622 25.9497 12.751 26.027 13.0477 26.0781C13.7934 26.2066 14.521 26.1782 15.0417 25.9985C15.3771 25.8905 15.6886 25.7484 15.966 25.5791C16.573 25.1937 17.337 25.0447 18.0532 25.1687C18.434 25.2346 18.7887 25.371 19.1105 25.5768C19.4254 25.7462 20.1575 26.5636 21.5513 28.1813C21.906 28.5962 22.2152 28.9543 22.3186 29.0601L22.3118 29.0646C22.4448 29.2056 22.7211 29.5819 23.4976 30.6528C23.7511 31.0041 24.0182 31.3667 24.0501 31.4088C24.5332 32.0443 24.7106 32.8731 24.548 33.6939C24.3775 34.5454 23.8704 35.2741 23.1588 35.689C22.0947 36.3359 20.9181 36.8338 19.6618 37.1578C17.9804 37.6171 15.9148 37.6751 13.8492 37.3181L13.8469 37.309Z" fill="black"/>
</g>
</g>
</g>
</g>
<mask id="mask4_665_46536" style="mask-type:luminance" maskUnits="userSpaceOnUse" x="1" y="9" width="23" height="25">
<path d="M1.44531 9.0083H23.5638V33.164H1.44531V9.0083Z" fill="white"/>
</mask>
<g mask="url(#mask4_665_46536)">
<mask id="mask5_665_46536" style="mask-type:luminance" maskUnits="userSpaceOnUse" x="-4" y="5" width="33" height="35">
<path d="M1.56284 5.37598L28.8335 10.078L23.8371 39.0664L-3.43359 34.3655L1.56284 5.37598Z" fill="white"/>
</mask>
<g mask="url(#mask5_665_46536)">
<mask id="mask6_665_46536" style="mask-type:luminance" maskUnits="userSpaceOnUse" x="-4" y="5" width="33" height="35">
<path d="M1.56284 5.37598L28.8335 10.078L23.8371 39.0664L-3.43359 34.3655L1.56284 5.37598Z" fill="white"/>
</mask>
<g mask="url(#mask6_665_46536)">
<mask id="mask7_665_46536" style="mask-type:luminance" maskUnits="userSpaceOnUse" x="-4" y="5" width="33" height="35">
<path d="M1.56284 5.37598L28.8335 10.078L23.8371 39.0664L-3.43359 34.3655L1.56284 5.37598Z" fill="white"/>
</mask>
<g mask="url(#mask7_665_46536)">
<path d="M16.2463 9.42914C17.8049 9.69858 19.3067 10.2443 20.7084 11.0571C21.6838 11.6233 22.5126 12.3008 23.1708 13.0784C23.7324 13.7162 23.5619 14.7735 22.8559 15.2407L20.5981 16.8005C20.2616 17.0324 19.8637 17.1119 19.4908 17.0471C18.6769 16.9153 18.3506 16.0354 17.6275 15.6693C14.7604 13.806 10.8099 14.7143 9.09325 17.6622C7.38343 20.4418 7.53463 24.7868 10.4882 26.6455C12.2639 27.8279 14.9537 27.9893 16.7272 26.8183C17.3774 26.4136 18.2323 26.558 18.6825 27.1764L20.2525 29.3251C20.763 29.9935 20.5254 31.0338 19.8001 31.4555C18.861 32.0274 17.8185 32.4639 16.7044 32.7583C15.131 33.1665 13.3826 33.2119 11.5102 32.8891C2.32674 31.3634 -1.02354 21.9163 3.74325 14.3778C6.4444 10.2647 11.4613 8.55036 16.2463 9.42914Z" fill="white"/>
</g>
</g>
</g>
</g>
<mask id="mask8_665_46536" style="mask-type:luminance" maskUnits="userSpaceOnUse" x="14" y="14" width="28" height="29">
<path d="M14.832 14.8291H41.0249V42.4772H14.832V14.8291Z" fill="white"/>
</mask>
<g mask="url(#mask8_665_46536)">
<mask id="mask9_665_46536" style="mask-type:luminance" maskUnits="userSpaceOnUse" x="13" y="13" width="31" height="30">
<path d="M17.2293 13.6853L43.8178 17.056L40.5846 42.5635L13.9961 39.1938L17.2293 13.6853Z" fill="white"/>
</mask>
<g mask="url(#mask9_665_46536)">
<mask id="mask10_665_46536" style="mask-type:luminance" maskUnits="userSpaceOnUse" x="13" y="13" width="31" height="30">
<path d="M17.2293 13.6853L43.8178 17.056L40.5846 42.5635L13.9961 39.1938L17.2293 13.6853Z" fill="white"/>
</mask>
<g mask="url(#mask10_665_46536)">
<mask id="mask11_665_46536" style="mask-type:luminance" maskUnits="userSpaceOnUse" x="13" y="13" width="31" height="30">
<path d="M17.2293 13.6853L43.8178 17.056L40.5846 42.5635L13.9961 39.1938L17.2293 13.6853Z" fill="white"/>
</mask>
<g mask="url(#mask11_665_46536)">
<path d="M34.7086 41.8052C34.1651 41.7358 33.6513 41.4959 33.2614 41.1378C32.9317 40.8081 32.4758 40.3295 32.0358 39.8691C31.763 39.5838 31.5049 39.3132 31.3048 39.104C31.2446 39.0392 31.165 38.9585 31.0752 38.8641C30.8547 38.6368 30.6034 38.3787 30.4818 38.2207C30.2578 37.9353 30.0952 37.5977 29.9963 37.2134L26.4312 36.761L25.2773 38.8516C24.7373 39.8327 23.6368 40.3989 22.5364 40.2591L19.6328 39.8907C19.5169 39.8759 19.3975 39.8498 19.2679 39.818C18.5619 39.6486 18.1015 39.1563 17.6536 38.6777L17.5285 38.5447C17.3376 38.3423 17.1034 38.1002 16.8669 37.8535C16.6032 37.5795 16.3349 37.3021 16.1234 37.0759L15.5823 36.5131C14.7637 35.6571 14.6239 34.2997 15.2469 33.2879L25.4148 16.4058C25.9799 15.4713 27.0349 14.9551 28.1035 15.0904C28.1808 15.1052 28.2831 15.1189 28.4173 15.1359C28.6082 15.1598 28.8561 15.1882 29.1369 15.2212C29.495 15.261 29.9042 15.3098 30.2999 15.361C31.5436 15.5179 31.9381 15.6179 32.1086 15.7157C32.4144 15.8533 32.6884 16.0431 32.9203 16.283L35.4123 18.8818C35.734 19.2342 35.9568 19.6401 36.0591 20.0596L40.7463 38.8278C40.9726 39.652 40.7486 40.558 40.1461 41.2527C39.5379 41.9552 38.6591 42.3076 37.7951 42.1985L34.7108 41.8074L34.7086 41.8052Z" fill="black"/>
</g>
</g>
</g>
</g>
<mask id="mask12_665_46536" style="mask-type:luminance" maskUnits="userSpaceOnUse" x="16" y="16" width="22" height="23">
<path d="M16 16.2842H37.2454V38.4026H16V16.2842Z" fill="white"/>
</mask>
<g mask="url(#mask12_665_46536)">
<mask id="mask13_665_46536" style="mask-type:luminance" maskUnits="userSpaceOnUse" x="13" y="13" width="31" height="30">
<path d="M17.2293 13.6853L43.8178 17.056L40.5846 42.5635L13.9961 39.1938L17.2293 13.6853Z" fill="white"/>
</mask>
<g mask="url(#mask13_665_46536)">
<mask id="mask14_665_46536" style="mask-type:luminance" maskUnits="userSpaceOnUse" x="13" y="13" width="31" height="30">
<path d="M17.2293 13.6853L43.8178 17.056L40.5846 42.5635L13.9961 39.1938L17.2293 13.6853Z" fill="white"/>
</mask>
<g mask="url(#mask14_665_46536)">
<mask id="mask15_665_46536" style="mask-type:luminance" maskUnits="userSpaceOnUse" x="13" y="13" width="31" height="30">
<path d="M17.2293 13.6853L43.8178 17.056L40.5846 42.5635L13.9961 39.1938L17.2293 13.6853Z" fill="white"/>
</mask>
<g mask="url(#mask15_665_46536)">
<path d="M36.9519 36.5782C37.1997 37.4649 36.3596 38.4028 35.4501 38.2573L32.4181 37.873C31.8736 37.8037 31.4348 37.4092 31.3109 36.8771L30.5605 33.644L23.2199 32.7129L21.617 35.6232C21.3441 36.1166 20.7973 36.3997 20.2459 36.3303L17.3413 35.962C16.4125 35.8688 15.8964 34.7456 16.4 33.9668L26.5679 17.0801C26.8522 16.6129 27.3819 16.3548 27.9128 16.4219L31.171 16.8346C31.7065 16.9028 32.1419 17.2859 32.2704 17.8077L36.9542 36.5782H36.9519ZM25.4595 28.5225L29.7068 29.0602L28.4892 22.9815L25.4595 28.5225Z" fill="white"/>
</g>
</g>
</g>
</g>
<mask id="mask16_665_46536" style="mask-type:luminance" maskUnits="userSpaceOnUse" x="32" y="9" width="26" height="27">
<path d="M32.0039 9.0083H57.6148V35.4922H32.0039V9.0083Z" fill="white"/>
</mask>
<g mask="url(#mask16_665_46536)">
<mask id="mask17_665_46536" style="mask-type:luminance" maskUnits="userSpaceOnUse" x="31" y="8" width="28" height="29">
<path d="M31.4805 11.1353L55.2985 8.44556L58.1099 33.3459L34.293 36.0345L31.4805 11.1353Z" fill="white"/>
</mask>
<g mask="url(#mask17_665_46536)">
<mask id="mask18_665_46536" style="mask-type:luminance" maskUnits="userSpaceOnUse" x="31" y="8" width="28" height="29">
<path d="M31.4805 11.1353L55.2985 8.44556L58.1099 33.3459L34.293 36.0345L31.4805 11.1353Z" fill="white"/>
</mask>
<g mask="url(#mask18_665_46536)">
<mask id="mask19_665_46536" style="mask-type:luminance" maskUnits="userSpaceOnUse" x="31" y="8" width="28" height="29">
<path d="M31.4805 11.1353L55.2985 8.44556L58.1099 33.3459L34.293 36.0345L31.4805 11.1353Z" fill="white"/>
</mask>
<g mask="url(#mask19_665_46536)">
<path d="M39.5066 35.3832C39.0882 35.4298 38.6687 35.3718 38.289 35.2206C37.8729 35.0341 37.5012 34.784 37.1431 34.5464C36.9453 34.4146 36.7418 34.2793 36.5383 34.1588L34.9137 33.1197C34.3578 32.7639 33.9565 32.1932 33.811 31.5577C33.7826 31.4519 33.761 31.3303 33.7473 31.1859L32.2058 13.7285C32.0784 12.2984 33.1289 11.0024 34.5488 10.8421L38.2686 10.4214C38.8415 10.3566 39.4281 10.4953 39.9215 10.8046C40.0796 10.9092 40.4638 11.1524 40.9151 11.4412C41.745 11.9676 42.7693 12.6178 43.0547 12.8247C43.2298 12.9236 43.6026 13.3647 45.4568 15.8817C45.5228 15.9693 45.5876 16.0568 45.6501 16.1432L45.2772 12.2768C45.201 11.6197 45.408 10.9228 45.8479 10.3635C46.2879 9.80755 46.92 9.44489 47.5816 9.36986L50.0827 9.08792C50.5124 9.03904 50.9478 9.10384 51.348 9.26868C51.6151 9.3835 51.838 9.53129 52.0528 9.6734C52.1529 9.73934 52.2563 9.80755 52.3666 9.87462C52.3666 9.87462 53.7479 10.7557 54.0366 10.9398C54.1003 10.9865 54.2083 11.0535 54.3299 11.1274C54.6028 11.2957 54.7824 11.4071 54.8711 11.4901C55.4167 11.9084 55.7783 12.578 55.8442 13.284L57.3869 30.7414C57.5142 32.1716 56.4615 33.4687 55.0439 33.6279L51.3502 34.0451C50.9967 34.0826 50.6568 34.0496 50.335 33.9507C49.9076 33.8154 49.5608 33.5813 49.2255 33.3596C49.0766 33.2595 48.9219 33.1549 48.7548 33.0572L48.2216 32.7173C48.0591 32.6138 47.7987 32.4501 47.5361 32.2773C47.2394 32.0886 46.937 31.8942 46.7517 31.7782C46.5005 31.6179 46.281 31.4122 46.0946 31.17L43.938 28.2927L44.3143 32.1932C44.3893 32.8537 44.1824 33.5528 43.7391 34.1088C43.2991 34.6624 42.6704 35.0251 42.0111 35.1001L39.5066 35.3832Z" fill="black"/>
</g>
</g>
</g>
</g>
<mask id="mask20_665_46536" style="mask-type:luminance" maskUnits="userSpaceOnUse" x="33" y="10" width="21" height="23">
<path d="M33.4609 10.1724H53.2511V32.2908H33.4609V10.1724Z" fill="white"/>
</mask>
<g mask="url(#mask20_665_46536)">
<mask id="mask21_665_46536" style="mask-type:luminance" maskUnits="userSpaceOnUse" x="31" y="8" width="28" height="29">
<path d="M31.4766 11.1353L55.2946 8.44556L58.106 33.3459L34.2891 36.0345L31.4766 11.1353Z" fill="white"/>
</mask>
<g mask="url(#mask21_665_46536)">
<mask id="mask22_665_46536" style="mask-type:luminance" maskUnits="userSpaceOnUse" x="31" y="8" width="28" height="29">
<path d="M31.4766 11.1353L55.2946 8.44556L58.106 33.3459L34.2891 36.0345L31.4766 11.1353Z" fill="white"/>
</mask>
<g mask="url(#mask22_665_46536)">
<mask id="mask23_665_46536" style="mask-type:luminance" maskUnits="userSpaceOnUse" x="31" y="8" width="28" height="29">
<path d="M31.4766 11.1353L55.2946 8.44556L58.106 33.3459L34.2891 36.0345L31.4766 11.1353Z" fill="white"/>
</mask>
<g mask="url(#mask23_665_46536)">
<path d="M50.2027 10.3916C50.9132 10.3109 51.5408 10.8293 51.6067 11.5455L53.1483 29.0029C53.2108 29.7214 52.6856 30.3671 51.975 30.4478L48.2803 30.865C47.8335 30.915 47.397 30.7286 47.1287 30.3716L39.0195 19.5511L40.0802 30.4671C40.1143 30.8139 40.0075 31.1629 39.7903 31.4357C39.5698 31.7108 39.2526 31.8836 38.9081 31.9234L36.4423 32.202C35.7306 32.2815 35.1042 31.7665 35.0383 31.0469L33.4933 13.5884C33.4308 12.871 33.956 12.223 34.6677 12.1435L38.3875 11.7228C38.8342 11.6728 39.2708 11.8593 39.5368 12.2162L47.6164 23.0117L46.5614 12.123C46.5273 11.7774 46.6341 11.4284 46.8513 11.1544C47.0695 10.8804 47.389 10.7065 47.7346 10.6678L50.1993 10.3893L50.2027 10.3916Z" fill="white"/>
</g>
</g>
</g>
</g>
<mask id="mask24_665_46536" style="mask-type:luminance" maskUnits="userSpaceOnUse" x="48" y="13" width="27" height="28">
<path d="M48.3008 13.9558H74.2027V40.7308H48.3008V13.9558Z" fill="white"/>
</mask>
<g mask="url(#mask24_665_46536)">
<mask id="mask25_665_46536" style="mask-type:luminance" maskUnits="userSpaceOnUse" x="47" y="13" width="29" height="29">
<path d="M50.4373 13.6853L75.3797 16.0875L72.915 41.6813L47.9727 39.2791L50.4373 13.6853Z" fill="white"/>
</mask>
<g mask="url(#mask25_665_46536)">
<mask id="mask26_665_46536" style="mask-type:luminance" maskUnits="userSpaceOnUse" x="47" y="13" width="29" height="29">
<path d="M50.4373 13.6853L75.3797 16.0875L72.915 41.6813L47.9727 39.2791L50.4373 13.6853Z" fill="white"/>
</mask>
<g mask="url(#mask26_665_46536)">
<mask id="mask27_665_46536" style="mask-type:luminance" maskUnits="userSpaceOnUse" x="47" y="13" width="29" height="29">
<path d="M50.4373 13.6853L75.3797 16.0875L72.915 41.6813L47.9727 39.2791L50.4373 13.6853Z" fill="white"/>
</mask>
<g mask="url(#mask27_665_46536)">
<path d="M53.3655 39.8044C53.2154 39.7896 53.0608 39.7589 52.8801 39.7089C52.2616 39.5702 51.7046 39.0006 51.2157 38.5004C51.0838 38.3674 50.9599 38.2412 50.8462 38.1355L49.7935 37.0987C49.7446 37.0418 49.648 36.9532 49.5411 36.8497C49.2751 36.5951 49.133 36.4564 49.0682 36.3654C48.6931 35.9232 48.4702 35.3309 48.4589 34.7409C48.4543 34.6261 48.4577 34.501 48.4748 34.3521L50.6393 16.4195C50.819 14.9473 52.1502 13.8673 53.611 14.0082C53.885 14.0401 54.1761 14.0707 54.4796 14.0992C54.9639 14.1469 55.4868 14.1913 56.0359 14.239C56.6373 14.2913 57.2671 14.3436 57.9083 14.405C59.9774 14.6051 62.5648 14.9188 64.2349 15.5816C65.939 16.1819 67.3532 17.0391 68.5424 18.1975C69.0926 18.742 69.3484 18.9933 69.4689 19.132L69.478 19.1229C69.6315 19.2684 69.8077 19.4458 69.9839 19.6208C70.1737 19.8141 70.367 20.0096 70.5387 20.1688C73.3205 22.7005 74.4221 25.9053 73.9003 29.965C73.4013 35.157 69.5439 39.278 64.3019 40.208C62.7831 40.4933 61.2472 40.5661 59.7352 40.4206L53.3655 39.8067V39.8044ZM59.7909 30.3879C61.0187 30.1946 61.9282 29.6285 62.5035 28.7019C63.0639 27.88 63.3606 25.9224 63.1162 24.8276C62.5364 24.64 61.9316 24.5172 61.3211 24.4581L60.5162 24.3808L59.7909 30.3856V30.3879Z" fill="black"/>
</g>
</g>
</g>
</g>
<mask id="mask28_665_46536" style="mask-type:luminance" maskUnits="userSpaceOnUse" x="49" y="15" width="22" height="22">
<path d="M49.7617 15.1201H70.134V36.6565H49.7617V15.1201Z" fill="white"/>
</mask>
<g mask="url(#mask28_665_46536)">
<mask id="mask29_665_46536" style="mask-type:luminance" maskUnits="userSpaceOnUse" x="47" y="13" width="29" height="29">
<path d="M50.4412 13.6853L75.3836 16.0875L72.9189 41.6813L47.9766 39.2791L50.4412 13.6853Z" fill="white"/>
</mask>
<g mask="url(#mask29_665_46536)">
<mask id="mask30_665_46536" style="mask-type:luminance" maskUnits="userSpaceOnUse" x="47" y="13" width="29" height="29">
<path d="M50.4412 13.6853L75.3836 16.0875L72.9189 41.6813L47.9766 39.2791L50.4412 13.6853Z" fill="white"/>
</mask>
<g mask="url(#mask30_665_46536)">
<mask id="mask31_665_46536" style="mask-type:luminance" maskUnits="userSpaceOnUse" x="47" y="13" width="29" height="29">
<path d="M50.4412 13.6853L75.3836 16.0875L72.9189 41.6813L47.9766 39.2791L50.4412 13.6853Z" fill="white"/>
</mask>
<g mask="url(#mask31_665_46536)">
<path d="M69.59 22.3217C70.1039 23.7018 70.246 25.3775 70.0118 27.3022C69.557 32.0781 66.0419 35.5557 61.5241 36.3595C60.1303 36.6232 58.7172 36.6857 57.328 36.5527L50.9639 35.94C50.2318 35.8695 49.7111 35.2158 49.7987 34.4769L51.9678 16.5522C52.0576 15.8167 52.7226 15.2755 53.4548 15.346C56.2207 15.6746 61.1819 15.828 63.7591 16.8455C66.4773 17.8107 68.5782 19.5455 69.59 22.3194V22.3217ZM63.6284 29.4042C64.481 28.1389 64.8153 25.4219 64.2798 24.0145C64.0217 23.2801 63.625 22.6662 63.1054 22.1932C61.4923 20.6744 58.898 20.5914 56.7903 20.3913L55.4386 31.5859C58.383 31.9235 61.8174 32.3043 63.6284 29.402" fill="white"/>
</g>
</g>
</g>
</g>
<mask id="mask32_665_46536" style="mask-type:luminance" maskUnits="userSpaceOnUse" x="65" y="9" width="24" height="27">
<path d="M65.4766 9.88159H88.4681V35.7835H65.4766V9.88159Z" fill="white"/>
</mask>
<g mask="url(#mask32_665_46536)">
<mask id="mask33_665_46536" style="mask-type:luminance" maskUnits="userSpaceOnUse" x="65" y="8" width="24" height="29">
<path d="M65.3086 10.6932L86.3618 8.8208L88.6207 34.2145L67.5675 36.088L65.3086 10.6932Z" fill="white"/>
</mask>
<g mask="url(#mask33_665_46536)">
<mask id="mask34_665_46536" style="mask-type:luminance" maskUnits="userSpaceOnUse" x="65" y="8" width="24" height="29">
<path d="M65.3086 10.6932L86.3618 8.8208L88.6207 34.2145L67.5675 36.088L65.3086 10.6932Z" fill="white"/>
</mask>
<g mask="url(#mask34_665_46536)">
<mask id="mask35_665_46536" style="mask-type:luminance" maskUnits="userSpaceOnUse" x="65" y="8" width="24" height="29">
<path d="M65.3086 10.6932L86.3618 8.8208L88.6207 34.2145L67.5675 36.088L65.3086 10.6932Z" fill="white"/>
</mask>
<g mask="url(#mask35_665_46536)">
<path d="M88.1723 29.0431L88.4042 31.642C88.5304 33.0585 87.4845 34.309 86.0748 34.4341L72.3974 35.6505C71.7039 35.713 71.0457 35.4902 70.5455 35.0775L68.0228 32.9607C67.534 32.5423 67.1986 31.9341 67.1372 31.2361L65.5377 13.2603C65.4115 11.8461 66.4574 10.5933 67.8659 10.4671L71.7357 10.1238C72.4781 10.0578 73.1739 10.3147 73.6843 10.7797L73.7036 10.7956L75.9898 12.7146L76.1785 12.8738C76.631 13.2921 76.9379 13.8776 76.9971 14.5381L77.9338 25.071L82.9121 24.6276C83.6271 24.564 84.3013 24.8027 84.8106 25.2404L84.8788 25.3006L87.1661 27.2196L87.3321 27.3572C87.7971 27.7778 88.1131 28.3701 88.1723 29.0431Z" fill="black"/>
</g>
</g>
</g>
</g>
<mask id="mask36_665_46536" style="mask-type:luminance" maskUnits="userSpaceOnUse" x="65" y="9" width="22" height="25">
<path d="M65.4766 9.88159H86.1399V33.7463H65.4766V9.88159Z" fill="white"/>
</mask>
<g mask="url(#mask36_665_46536)">
<mask id="mask37_665_46536" style="mask-type:luminance" maskUnits="userSpaceOnUse" x="65" y="8" width="24" height="29">
<path d="M65.3086 10.6932L86.3618 8.8208L88.6207 34.2145L67.5675 36.088L65.3086 10.6932Z" fill="white"/>
</mask>
<g mask="url(#mask37_665_46536)">
<mask id="mask38_665_46536" style="mask-type:luminance" maskUnits="userSpaceOnUse" x="65" y="8" width="24" height="29">
<path d="M65.3086 10.6932L86.3618 8.8208L88.6207 34.2145L67.5675 36.088L65.3086 10.6932Z" fill="white"/>
</mask>
<g mask="url(#mask38_665_46536)">
<mask id="mask39_665_46536" style="mask-type:luminance" maskUnits="userSpaceOnUse" x="65" y="8" width="24" height="29">
<path d="M65.3086 10.6932L86.3618 8.8208L88.6207 34.2145L67.5675 36.088L65.3086 10.6932Z" fill="white"/>
</mask>
<g mask="url(#mask39_665_46536)">
<path d="M69.9225 33.5735C68.5128 33.6986 67.2623 32.6493 67.1372 31.2362L65.5377 13.2604C65.4115 11.8461 66.4574 10.5933 67.8659 10.4671L71.7357 10.1238C73.1454 9.99762 74.396 11.0469 74.521 12.4612L75.6613 25.2734L82.9121 24.6277C84.3206 24.5026 85.5712 25.5519 85.6973 26.965L85.9281 29.5673C86.0543 30.9804 85.0084 32.2343 83.5999 32.3594L69.9225 33.5758V33.5735Z" fill="black"/>
</g>
</g>
</g>
</g>
<mask id="mask40_665_46536" style="mask-type:luminance" maskUnits="userSpaceOnUse" x="66" y="11" width="19" height="22">
<path d="M66.6367 11.0457H84.9718V32.5821H66.6367V11.0457Z" fill="white"/>
</mask>
<g mask="url(#mask40_665_46536)">
<mask id="mask41_665_46536" style="mask-type:luminance" maskUnits="userSpaceOnUse" x="65" y="8" width="24" height="29">
<path d="M65.3086 10.6934L86.3618 8.82104L88.6207 34.2148L67.5675 36.0883L65.3086 10.6934Z" fill="white"/>
</mask>
<g mask="url(#mask41_665_46536)">
<mask id="mask42_665_46536" style="mask-type:luminance" maskUnits="userSpaceOnUse" x="65" y="8" width="24" height="29">
<path d="M65.3086 10.6934L86.3618 8.82104L88.6207 34.2148L67.5675 36.0883L65.3086 10.6934Z" fill="white"/>
</mask>
<g mask="url(#mask42_665_46536)">
<mask id="mask43_665_46536" style="mask-type:luminance" maskUnits="userSpaceOnUse" x="65" y="8" width="24" height="29">
<path d="M65.3086 10.6934L86.3618 8.82104L88.6207 34.2148L67.5675 36.0883L65.3086 10.6934Z" fill="white"/>
</mask>
<g mask="url(#mask43_665_46536)">
<path d="M83.0125 25.7679L75.1933 26.4637C74.8807 26.491 74.6021 26.2579 74.5748 25.9442L73.3846 12.5623C73.3141 11.7756 72.6206 11.1936 71.8373 11.2629L67.9675 11.6074C67.1831 11.6767 66.6033 12.3725 66.6738 13.1592L68.2722 31.135C68.3427 31.9217 69.0361 32.5037 69.8194 32.4333L83.4968 31.2168C84.2812 31.1475 84.861 30.4517 84.7905 29.665L84.5598 27.0639C84.4893 26.2772 83.7958 25.6952 83.0125 25.7657V25.7679Z" fill="white"/>
</g>
</g>
</g>
</g>
<mask id="mask44_665_46536" style="mask-type:luminance" maskUnits="userSpaceOnUse" x="77" y="17" width="24" height="28">
<path d="M77.9883 17.4482H100.98V44.2232H77.9883V17.4482Z" fill="white"/>
</mask>
<g mask="url(#mask44_665_46536)">
<mask id="mask45_665_46536" style="mask-type:luminance" maskUnits="userSpaceOnUse" x="77" y="17" width="26" height="28">
<path d="M81.4256 17.1868L102.033 20.7769L97.9201 44.3903L77.3125 40.8002L81.4256 17.1868Z" fill="white"/>
</mask>
<g mask="url(#mask45_665_46536)">
<mask id="mask46_665_46536" style="mask-type:luminance" maskUnits="userSpaceOnUse" x="77" y="17" width="26" height="28">
<path d="M81.4256 17.1868L102.033 20.7769L97.9201 44.3903L77.3125 40.8002L81.4256 17.1868Z" fill="white"/>
</mask>
<g mask="url(#mask46_665_46536)">
<mask id="mask47_665_46536" style="mask-type:luminance" maskUnits="userSpaceOnUse" x="77" y="17" width="26" height="28">
<path d="M81.4256 17.1868L102.033 20.7769L97.9201 44.3903L77.3125 40.8002L81.4256 17.1868Z" fill="white"/>
</mask>
<g mask="url(#mask47_665_46536)">
<path d="M98.6585 39.9497L98.3027 41.9938C98.073 43.3102 96.8214 44.1924 95.5117 43.9651L81.8241 41.5811C81.1932 41.4708 80.6588 41.1207 80.3041 40.6409L80.2678 40.5886L78.5295 38.1069C78.1726 37.5999 78.0066 36.9564 78.1225 36.2936L81.034 19.5763C81.2636 18.2621 82.5164 17.3765 83.825 17.605L97.2272 19.9401C97.882 20.0538 98.4266 20.4244 98.7824 20.928L98.8495 21.0281L100.458 23.3256L100.557 23.4632C100.891 23.9634 101.041 24.5875 100.93 25.2264L100.616 27.0238C100.388 28.3402 99.1349 29.2224 97.8263 28.9951L97.6012 28.9553L98.6028 30.3866C98.9484 30.8891 99.1042 31.5223 98.9916 32.1691L98.7097 33.7857C98.521 34.8692 97.6354 35.6627 96.5951 35.7764L98.1879 38.05L98.3163 38.2331C98.6278 38.7242 98.7665 39.3324 98.6585 39.9497Z" fill="black"/>
</g>
</g>
</g>
</g>
<mask id="mask48_665_46536" style="mask-type:luminance" maskUnits="userSpaceOnUse" x="77" y="17" width="23" height="25">
<path d="M77.9883 17.4482H99.2336V41.6039H77.9883V17.4482Z" fill="white"/>
</mask>
<g mask="url(#mask48_665_46536)">
<mask id="mask49_665_46536" style="mask-type:luminance" maskUnits="userSpaceOnUse" x="77" y="17" width="26" height="28">
<path d="M81.4256 17.1868L102.033 20.7769L97.9201 44.3903L77.3125 40.8002L81.4256 17.1868Z" fill="white"/>
</mask>
<g mask="url(#mask49_665_46536)">
<mask id="mask50_665_46536" style="mask-type:luminance" maskUnits="userSpaceOnUse" x="77" y="17" width="26" height="28">
<path d="M81.4256 17.1868L102.033 20.7769L97.9201 44.3903L77.3125 40.8002L81.4256 17.1868Z" fill="white"/>
</mask>
<g mask="url(#mask50_665_46536)">
<mask id="mask51_665_46536" style="mask-type:luminance" maskUnits="userSpaceOnUse" x="77" y="17" width="26" height="28">
<path d="M81.4256 17.1868L102.033 20.7769L97.9201 44.3903L77.3125 40.8002L81.4256 17.1868Z" fill="white"/>
</mask>
<g mask="url(#mask51_665_46536)">
<path d="M80.0823 39.0925C78.7727 38.864 77.8927 37.6112 78.1224 36.2936L81.0338 19.5763C81.2635 18.2621 82.5163 17.3765 83.8248 17.605L97.2271 19.9401C98.5367 20.1675 99.4166 21.4237 99.187 22.739L98.8744 24.5352C98.6458 25.8494 97.393 26.735 96.0834 26.5065L88.6643 25.2139L88.5779 25.713L95.2865 26.8817C96.5961 27.109 97.476 28.3653 97.2464 29.6806L96.9656 31.2972C96.7359 32.6114 95.4831 33.4958 94.1746 33.2685L87.465 32.0998L87.2524 33.3208L94.9534 34.6634C96.263 34.8908 97.1429 36.147 96.9133 37.4623L96.5575 39.5052C96.329 40.8194 95.0761 41.705 93.7665 41.4765L80.0823 39.0925Z" fill="black"/>
</g>
</g>
</g>
</g>
<mask id="mask52_665_46536" style="mask-type:luminance" maskUnits="userSpaceOnUse" x="79" y="18" width="20" height="23">
<path d="M79.1523 18.6123H98.3605V40.4397H79.1523V18.6123Z" fill="white"/>
</mask>
<g mask="url(#mask52_665_46536)">
<mask id="mask53_665_46536" style="mask-type:luminance" maskUnits="userSpaceOnUse" x="77" y="17" width="26" height="28">
<path d="M81.4256 17.1868L102.033 20.7769L97.9201 44.3903L77.3125 40.8002L81.4256 17.1868Z" fill="white"/>
</mask>
<g mask="url(#mask53_665_46536)">
<mask id="mask54_665_46536" style="mask-type:luminance" maskUnits="userSpaceOnUse" x="77" y="17" width="26" height="28">
<path d="M81.4256 17.1868L102.033 20.7769L97.9201 44.3903L77.3125 40.8002L81.4256 17.1868Z" fill="white"/>
</mask>
<g mask="url(#mask54_665_46536)">
<mask id="mask55_665_46536" style="mask-type:luminance" maskUnits="userSpaceOnUse" x="77" y="17" width="26" height="28">
<path d="M81.4256 17.1868L102.033 20.7769L97.9201 44.3903L77.3125 40.8002L81.4256 17.1868Z" fill="white"/>
</mask>
<g mask="url(#mask55_665_46536)">
<path d="M94.7706 35.7232L86.5409 34.2896C86.251 34.2396 86.0555 33.9599 86.1055 33.6678L86.5034 31.3861C86.5546 31.0951 86.8331 30.8973 87.123 30.9484L94.3602 32.2092C95.0889 32.3354 95.7835 31.8454 95.9108 31.1133L96.1928 29.4967C96.3201 28.7657 95.8324 28.0688 95.1037 27.9426L87.8665 26.6819C87.5766 26.6307 87.3799 26.351 87.4311 26.0589L87.7028 24.5014C87.754 24.2092 88.0325 24.0125 88.3224 24.0626L96.2701 25.4472C96.9988 25.5746 97.6934 25.0835 97.8207 24.3525L98.1334 22.5551C98.2607 21.8241 97.773 21.1272 97.0443 20.9999L83.6397 18.6648C82.911 18.5386 82.2164 19.0286 82.0891 19.7607L79.1765 36.4781C79.0491 37.209 79.5368 37.9059 80.2656 38.0333L93.9509 40.4172C94.6785 40.5434 95.3731 40.0534 95.5016 39.3213L95.8574 37.2784C95.9847 36.5463 95.497 35.8505 94.7683 35.7232H94.7706Z" fill="white"/>
</g>
</g>
</g>
</g>
<defs>
<clipPath id="clip0_665_46536">
<rect width="6.49484" height="8.40433" fill="white" transform="translate(66.0938 0.621582) rotate(-3.7194)"/>
</clipPath>
</defs>
</svg>
