<svg width="9" height="17" viewBox="0 0 9 17" fill="none" xmlns="http://www.w3.org/2000/svg">
<path d="M5.63754 4.64124C5.63754 4.79162 5.75835 4.91359 5.90682 4.91359H7.16122V5.72834H5.90682C5.83268 5.72834 5.76546 5.75888 5.71667 5.80786C5.66789 5.85741 5.63754 5.92521 5.63754 6.00069C5.63754 6.15089 5.75835 6.27285 5.90682 6.27285H7.16122V7.0878H5.90682C5.83268 7.0878 5.76546 7.11834 5.71667 7.16731C5.66789 7.21687 5.63754 7.28467 5.63754 7.35996C5.63754 7.51035 5.75835 7.63231 5.90682 7.63231H7.16122V8.74995C7.16122 10.3138 5.90682 11.5818 4.35991 11.5818C2.8128 11.5818 1.55859 10.3138 1.55859 8.74995V7.63231H2.80972C2.95858 7.63231 3.079 7.51035 3.079 7.35996C3.079 7.28467 3.04904 7.21687 3.00026 7.16731C2.95147 7.11834 2.88425 7.0878 2.80972 7.0878H1.55859L1.55859 6.27285H2.80972C2.95858 6.27285 3.079 6.15089 3.079 6.00069C3.079 5.92521 3.04904 5.85741 3.00026 5.80786C2.95147 5.75888 2.88425 5.72834 2.80972 5.72834H1.55859V4.91359H2.80972C2.95858 4.91359 3.079 4.79162 3.079 4.64124C3.079 4.49085 2.95858 4.36888 2.80972 4.36888H1.55859V3.69953C1.55859 2.13532 2.8128 0.867676 4.35991 0.867676C5.13336 0.867676 5.83364 1.18478 6.3407 1.69703C6.84757 2.20946 7.16122 2.91743 7.16122 3.69953V4.36888H5.90682C5.75835 4.36888 5.63754 4.49085 5.63754 4.64124Z" fill="#FF9C25"/>
<mask id="mask0_614_48254" style="mask-type:luminance" maskUnits="userSpaceOnUse" x="0" y="6" width="9" height="11">
<path d="M0.0703125 6.66699L8.63827 6.66699V16.6762H0.0703125L0.0703125 6.66699Z" fill="white"/>
</mask>
<g mask="url(#mask0_614_48254)">
<path d="M8.27814 6.68359C8.07686 6.68359 7.91379 6.84839 7.91379 7.0516V8.75082C7.91379 9.23599 7.81968 9.70713 7.63414 10.151C7.45475 10.5793 7.19834 10.964 6.87182 11.294C6.5455 11.6242 6.16501 11.8833 5.7415 12.0644C5.30244 12.252 4.83609 12.3473 4.35612 12.3473C3.87633 12.3473 3.40999 12.252 2.97131 12.0644C2.54741 11.8833 2.16712 11.6242 1.8406 11.294C1.51409 10.964 1.25768 10.5793 1.07867 10.151C0.892748 9.70713 0.798634 9.23599 0.798634 8.75082L0.798634 7.0516C0.798634 6.84839 0.635569 6.68359 0.434281 6.68359C0.233378 6.68359 0.0703125 6.84839 0.0703125 7.0516L0.0703125 8.75082C0.0703125 9.33509 0.184017 9.90246 0.407776 10.4379C0.62366 10.9538 0.932314 11.4173 1.32567 11.8147C1.71864 12.2121 2.17691 12.5242 2.68762 12.7428C3.10499 12.9212 3.54213 13.0301 3.99215 13.0681V15.9006C3.99215 15.9138 3.99292 15.9272 3.99426 15.9401H1.68176C1.48067 15.9401 1.3176 16.1051 1.3176 16.3085C1.3176 16.5117 1.48067 16.6765 1.68176 16.6765H7.03086C7.23176 16.6765 7.39482 16.5117 7.39482 16.3085C7.39482 16.1051 7.23176 15.9401 7.03086 15.9401H4.71817C4.7197 15.9272 4.72047 15.9138 4.72047 15.9006L4.72047 13.0681C5.17029 13.0301 5.60782 12.9212 6.02519 12.7428C6.53551 12.5242 6.99379 12.2121 7.38676 11.8147C7.78011 11.4173 8.08896 10.9538 8.30465 10.4379C8.5286 9.90246 8.64211 9.33509 8.64211 8.75082V7.0516C8.64211 6.84839 8.47905 6.68359 8.27814 6.68359Z" fill="#FF9C25"/>
</g>
<path d="M5.63754 4.64124C5.63754 4.79162 5.75835 4.91359 5.90682 4.91359H7.16122V5.72834H5.90682C5.83268 5.72834 5.76546 5.75888 5.71667 5.80786C5.66789 5.85741 5.63754 5.92521 5.63754 6.00069C5.63754 6.15089 5.75835 6.27285 5.90682 6.27285H7.16122V7.0878H5.90682C5.83268 7.0878 5.76546 7.11834 5.71667 7.16731C5.66789 7.21687 5.63754 7.28467 5.63754 7.35996C5.63754 7.51035 5.75835 7.63231 5.90682 7.63231H7.16122V8.74995C7.16122 10.3138 5.90682 11.5818 4.35991 11.5818C2.8128 11.5818 1.55859 10.3138 1.55859 8.74995V7.63231H2.80972C2.95858 7.63231 3.079 7.51035 3.079 7.35996C3.079 7.28467 3.04904 7.21687 3.00026 7.16731C2.95147 7.11834 2.88425 7.0878 2.80972 7.0878H1.55859L1.55859 6.27285H2.80972C2.95858 6.27285 3.079 6.15089 3.079 6.00069C3.079 5.92521 3.04904 5.85741 3.00026 5.80786C2.95147 5.75888 2.88425 5.72834 2.80972 5.72834H1.55859V4.91359H2.80972C2.95858 4.91359 3.079 4.79162 3.079 4.64124C3.079 4.49085 2.95858 4.36888 2.80972 4.36888H1.55859V3.69953C1.55859 2.13532 2.8128 0.867676 4.35991 0.867676C5.13336 0.867676 5.83364 1.18478 6.3407 1.69703C6.84757 2.20946 7.16122 2.91743 7.16122 3.69953V4.36888H5.90682C5.75835 4.36888 5.63754 4.49085 5.63754 4.64124Z" fill="#FF9C25"/>
<mask id="mask1_614_48254" style="mask-type:luminance" maskUnits="userSpaceOnUse" x="0" y="6" width="9" height="11">
<path d="M0.0703125 6.66699L8.63827 6.66699V16.6762H0.0703125L0.0703125 6.66699Z" fill="white"/>
</mask>
<g mask="url(#mask1_614_48254)">
<path d="M8.27814 6.68359C8.07686 6.68359 7.91379 6.84839 7.91379 7.0516V8.75082C7.91379 9.23599 7.81968 9.70713 7.63414 10.151C7.45475 10.5793 7.19834 10.964 6.87182 11.294C6.5455 11.6242 6.16501 11.8833 5.7415 12.0644C5.30244 12.252 4.83609 12.3473 4.35612 12.3473C3.87633 12.3473 3.40999 12.252 2.97131 12.0644C2.54741 11.8833 2.16712 11.6242 1.8406 11.294C1.51409 10.964 1.25768 10.5793 1.07867 10.151C0.892748 9.70713 0.798634 9.23599 0.798634 8.75082L0.798634 7.0516C0.798634 6.84839 0.635569 6.68359 0.434281 6.68359C0.233378 6.68359 0.0703125 6.84839 0.0703125 7.0516L0.0703125 8.75082C0.0703125 9.33509 0.184017 9.90246 0.407776 10.4379C0.62366 10.9538 0.932314 11.4173 1.32567 11.8147C1.71864 12.2121 2.17691 12.5242 2.68762 12.7428C3.10499 12.9212 3.54213 13.0301 3.99215 13.0681V15.9006C3.99215 15.9138 3.99292 15.9272 3.99426 15.9401H1.68176C1.48067 15.9401 1.3176 16.1051 1.3176 16.3085C1.3176 16.5117 1.48067 16.6765 1.68176 16.6765H7.03086C7.23176 16.6765 7.39482 16.5117 7.39482 16.3085C7.39482 16.1051 7.23176 15.9401 7.03086 15.9401H4.71817C4.7197 15.9272 4.72047 15.9138 4.72047 15.9006L4.72047 13.0681C5.17029 13.0301 5.60782 12.9212 6.02519 12.7428C6.53551 12.5242 6.99379 12.2121 7.38676 11.8147C7.78011 11.4173 8.08896 10.9538 8.30465 10.4379C8.5286 9.90246 8.64211 9.33509 8.64211 8.75082V7.0516C8.64211 6.84839 8.47905 6.68359 8.27814 6.68359Z" fill="#FF9C25"/>
</g>
</svg>
