<svg width="9" height="17" viewBox="0 0 9 17" fill="none" xmlns="http://www.w3.org/2000/svg">
<path d="M5.95395 4.47009C5.95395 4.62048 6.07476 4.74244 6.22323 4.74244H7.47762V5.5572H6.22323C6.14909 5.5572 6.08186 5.58774 6.03308 5.63671C5.98429 5.68627 5.95395 5.75407 5.95395 5.82955C5.95395 5.97975 6.07476 6.10171 6.22323 6.10171H7.47762V6.91665H6.22323C6.14909 6.91665 6.08186 6.94719 6.03308 6.99617C5.98429 7.04572 5.95395 7.11352 5.95395 7.18881C5.95395 7.3392 6.07476 7.46117 6.22323 7.46117H7.47762V8.57881C7.47762 10.1426 6.22323 11.4107 4.67631 11.4107C3.1292 11.4107 1.875 10.1426 1.875 8.57881V7.46117H3.12613C3.27498 7.46117 3.39541 7.3392 3.39541 7.18881C3.39541 7.11352 3.36545 7.04572 3.31666 6.99617C3.26788 6.94719 3.20065 6.91665 3.12613 6.91665H1.875L1.875 6.10171H3.12613C3.27498 6.10171 3.39541 5.97975 3.39541 5.82955C3.39541 5.75407 3.36545 5.68627 3.31666 5.63671C3.26788 5.58774 3.20065 5.5572 3.12613 5.5572H1.875V4.74244H3.12613C3.27498 4.74244 3.39541 4.62048 3.39541 4.47009C3.39541 4.3197 3.27498 4.19774 3.12613 4.19774H1.875V3.52838C1.875 1.96418 3.1292 0.696533 4.67631 0.696533C5.44977 0.696533 6.15005 1.01364 6.65711 1.52588C7.16398 2.03832 7.47762 2.74628 7.47762 3.52838V4.19774H6.22323C6.07476 4.19774 5.95395 4.3197 5.95395 4.47009Z" fill="#14B8A6"/>
<path d="M8.59455 6.51257C8.39326 6.51257 8.2302 6.67737 8.2302 6.88058V8.5798C8.2302 9.06496 8.13608 9.53611 7.95055 9.97998C7.77116 10.4083 7.51475 10.793 7.18823 11.123C6.86191 11.4531 6.48142 11.7122 6.05791 11.8934C5.61884 12.081 5.1525 12.1763 4.67252 12.1763C4.19274 12.1763 3.7264 12.081 3.28771 11.8934C2.86382 11.7122 2.48352 11.4531 2.15701 11.123C1.83049 10.793 1.57408 10.4083 1.39508 9.97998C1.20915 9.53611 1.11504 9.06496 1.11504 8.5798V6.88058C1.11504 6.67737 0.951975 6.51257 0.750688 6.51257C0.549784 6.51257 0.386719 6.67737 0.386719 6.88058L0.386719 8.5798C0.386719 9.16407 0.500423 9.73144 0.724182 10.2669C0.940067 10.7828 1.24872 11.2463 1.64207 11.6437C2.03505 12.0411 2.49332 12.3532 3.00403 12.5717C3.42139 12.7502 3.85854 12.8591 4.30855 12.8971V15.7295C4.30855 15.7428 4.30932 15.7562 4.31067 15.7691H1.99817C1.79707 15.7691 1.63401 15.9341 1.63401 16.1375C1.63401 16.3407 1.79707 16.5055 1.99817 16.5055H7.34726C7.54816 16.5055 7.71123 16.3407 7.71123 16.1375C7.71123 15.9341 7.54816 15.7691 7.34726 15.7691H5.03457C5.03611 15.7562 5.03688 15.7428 5.03688 15.7295L5.03688 12.8971C5.4867 12.8591 5.92423 12.7502 6.34159 12.5717C6.85192 12.3532 7.31019 12.0411 7.70316 11.6437C8.09652 11.2463 8.40536 10.7828 8.62106 10.2669C8.84501 9.73144 8.95852 9.16407 8.95852 8.5798V6.88058C8.95852 6.67737 8.79545 6.51257 8.59455 6.51257Z" fill="#14B8A6"/>
</svg>
