<svg width="16" height="16" viewBox="0 0 16 16" fill="none" xmlns="http://www.w3.org/2000/svg">
<path d="M8.17552 0.650391C4.10988 0.650391 0.796875 3.9634 0.796875 8.02903C0.796875 12.0947 4.10988 15.4077 8.17552 15.4077C12.2411 15.4077 15.5542 12.0947 15.5542 8.02903C15.5542 3.9634 12.2411 0.650391 8.17552 0.650391ZM11.3852 10.6632C11.2819 10.8403 11.0975 10.9362 10.9056 10.9362C10.8097 10.9362 10.7138 10.9141 10.6252 10.8551L8.33785 9.49C7.76969 9.15058 7.34911 8.40534 7.34911 7.74864V4.7234C7.34911 4.42088 7.59998 4.17 7.90251 4.17C8.20503 4.17 8.4559 4.42088 8.4559 4.7234V7.74864C8.4559 8.01427 8.67726 8.40534 8.906 8.53816L11.1934 9.90321C11.459 10.0582 11.5476 10.3976 11.3852 10.6632Z" fill="#F6DDAD"/>
</svg>
