<svg width="19" height="18" viewBox="0 0 19 18" fill="none" xmlns="http://www.w3.org/2000/svg">
<path d="M14.3102 3.20956L10.6282 1.82976C10.0158 1.60102 9.01229 1.60102 8.39986 1.82976L4.71792 3.20956C3.86937 3.52684 3.17578 4.53034 3.17578 5.43053V10.9129C3.17578 11.7835 3.75132 12.9272 4.45229 13.4511L7.6251 15.8197C8.66549 16.6018 10.3773 16.6018 11.4177 15.8197L14.5905 13.4511C15.2915 12.9272 15.867 11.7835 15.867 10.9129V5.43053C15.8523 4.53034 15.1587 3.52684 14.3102 3.20956ZM9.46238 5.36413C10.3331 5.36413 11.0414 6.07247 11.0414 6.94315C11.0414 7.79908 10.37 8.48529 9.52141 8.51481H9.50665H9.4919C9.47714 8.51481 9.46238 8.51481 9.44763 8.51481C8.56219 8.48529 7.89811 7.79908 7.89811 6.94315C7.89073 6.07247 8.59908 5.36413 9.46238 5.36413ZM11.13 12.2484C10.6799 12.5435 10.0969 12.6985 9.51403 12.6985C8.93112 12.6985 8.34083 12.5509 7.89811 12.2484C7.47753 11.968 7.24879 11.5843 7.24141 11.1637C7.24141 10.7505 7.47753 10.3521 7.89811 10.0717C8.79093 9.48141 10.2445 9.48141 11.1373 10.0717C11.5579 10.3521 11.794 10.7358 11.794 11.1564C11.7867 11.5696 11.5505 11.968 11.13 12.2484Z" fill="#F6DDAD"/>
</svg>
