<svg width="19" height="18" viewBox="0 0 19 18" fill="none" xmlns="http://www.w3.org/2000/svg">
<path d="M12.5881 1.80589C12.2856 1.50336 11.7617 1.70996 11.7617 2.13055V4.70569C11.7617 5.78297 12.6767 6.67579 13.7908 6.67579C14.4918 6.68317 15.4658 6.68317 16.2996 6.68317C16.7202 6.68317 16.9415 6.1888 16.6464 5.89365C15.5839 4.82375 13.6802 2.89793 12.5881 1.80589Z" fill="#F6DDAD"/>
<path d="M16.0589 7.6935H13.9265C12.1777 7.6935 10.7537 6.26942 10.7537 4.52068V2.38825C10.7537 1.98243 10.4216 1.65039 10.0158 1.65039H6.88725C4.61463 1.65039 2.77734 3.12612 2.77734 5.76029V12.2978C2.77734 14.9319 4.61463 16.4077 6.88725 16.4077H12.6869C14.9595 16.4077 16.7968 14.9319 16.7968 12.2978V8.43136C16.7968 8.02554 16.4647 7.6935 16.0589 7.6935ZM9.41812 13.2717H6.46666C6.16414 13.2717 5.91327 13.0209 5.91327 12.7184C5.91327 12.4158 6.16414 12.165 6.46666 12.165H9.41812C9.72064 12.165 9.97152 12.4158 9.97152 12.7184C9.97152 13.0209 9.72064 13.2717 9.41812 13.2717ZM10.8938 10.3203H6.46666C6.16414 10.3203 5.91327 10.0694 5.91327 9.7669C5.91327 9.46437 6.16414 9.2135 6.46666 9.2135H10.8938C11.1964 9.2135 11.4472 9.46437 11.4472 9.7669C11.4472 10.0694 11.1964 10.3203 10.8938 10.3203Z" fill="#F6DDAD"/>
</svg>
