<svg width="18" height="18" viewBox="0 0 18 18" fill="none" xmlns="http://www.w3.org/2000/svg">
<path d="M15.7461 4.69792C13.3873 4.46417 11.0144 4.34375 8.64859 4.34375C7.24609 4.34375 5.84359 4.41458 4.44109 4.55625L2.99609 4.69792" stroke="#F3EEE3" stroke-width="1.5" stroke-linecap="round" stroke-linejoin="round"/>
<path d="M6.89258 3.97875L7.04841 3.05083C7.16174 2.37792 7.24674 1.875 8.44383 1.875H10.2997C11.4967 1.875 11.5888 2.40625 11.6951 3.05792L11.8509 3.97875" stroke="#F3EEE3" stroke-width="1.5" stroke-linecap="round" stroke-linejoin="round"/>
<path d="M14.2237 6.9375L13.7633 14.0704C13.6854 15.1825 13.6216 16.0467 11.6454 16.0467H7.09786C5.12161 16.0467 5.05786 15.1825 4.97995 14.0704L4.51953 6.9375" stroke="#F3EEE3" stroke-width="1.5" stroke-linecap="round" stroke-linejoin="round"/>
<path d="M8.1875 12.1484H10.5462" stroke="#F3EEE3" stroke-width="1.5" stroke-linecap="round" stroke-linejoin="round"/>
<path d="M7.59961 9.3125H11.1413" stroke="#F3EEE3" stroke-width="1.5" stroke-linecap="round" stroke-linejoin="round"/>
</svg>
