<svg xmlns="http://www.w3.org/2000/svg" xmlns:xlink="http://www.w3.org/1999/xlink" width="432" zoomAndPan="magnify" viewBox="0 0 324 94.499997" height="126" preserveAspectRatio="xMidYMid meet" version="1.2"><g id="d73abb2b27"><path style=" stroke:none;fill-rule:evenodd;fill:#12a594;fill-opacity:1;" d="M 14.191406 5.972656 C 22.539062 1.917969 32.589844 5.402344 36.644531 13.75 L 48.398438 37.972656 L 60.34375 13.675781 C 64.4375 5.347656 74.507812 1.914062 82.832031 6.007812 C 91.160156 10.101562 94.59375 20.175781 90.5 28.503906 L 63.378906 83.671875 C 60.546875 89.433594 54.679688 93.078125 48.257812 93.0625 C 41.835938 93.046875 35.988281 89.371094 33.183594 83.59375 L 6.414062 28.425781 C 2.359375 20.078125 5.84375 10.023438 14.191406 5.972656 Z M 134.285156 4.285156 C 140.707031 4.300781 146.554688 7.972656 149.359375 13.75 L 176.132812 68.921875 C 178.660156 74.128906 178.328125 80.269531 175.253906 85.175781 C 172.183594 90.082031 166.804688 93.0625 161.015625 93.0625 L 107.121094 93.0625 C 101.320312 93.0625 95.925781 90.066406 92.859375 85.140625 C 89.792969 80.214844 89.484375 74.050781 92.042969 68.84375 L 119.164062 13.675781 C 121.996094 7.910156 127.867188 4.269531 134.285156 4.285156 Z M 195.570312 21.089844 C 195.570312 11.808594 203.09375 4.285156 212.371094 4.285156 L 236.148438 4.285156 C 236.613281 4.285156 237.082031 4.304688 237.546875 4.34375 L 244.230469 4.902344 C 246.238281 5.066406 249.789062 5.546875 253.523438 7.523438 C 272.988281 17.8125 272.988281 45.925781 253.523438 56.214844 C 249.789062 58.191406 246.238281 58.667969 244.230469 58.835938 L 237.546875 59.394531 C 237.082031 59.433594 236.613281 59.453125 236.148438 59.453125 L 229.175781 59.453125 L 229.175781 76.257812 C 229.175781 85.539062 221.652344 93.0625 212.371094 93.0625 C 203.09375 93.0625 195.570312 85.539062 195.570312 76.257812 Z M 301.136719 4.285156 C 310.417969 4.285156 317.9375 11.808594 317.9375 21.089844 L 317.9375 76.257812 C 317.9375 85.539062 310.417969 93.0625 301.136719 93.0625 C 291.855469 93.0625 284.335938 85.539062 284.335938 76.257812 L 284.335938 21.089844 C 284.335938 11.808594 291.855469 4.285156 301.136719 4.285156 Z M 134.105469 59.453125 L 134.183594 59.453125 L 134.144531 59.375 Z M 134.105469 59.453125 "/><path style=" stroke:none;fill-rule:evenodd;fill:#12a594;fill-opacity:1;" d="M 14.191406 5.972656 C 22.539062 1.917969 32.589844 5.402344 36.644531 13.75 L 48.398438 37.972656 L 60.34375 13.675781 C 64.4375 5.347656 74.507812 1.914062 82.832031 6.007812 C 91.160156 10.101562 94.59375 20.175781 90.5 28.503906 L 63.378906 83.671875 C 60.546875 89.433594 54.679688 93.078125 48.257812 93.0625 C 41.835938 93.046875 35.988281 89.371094 33.183594 83.59375 L 6.414062 28.425781 C 2.359375 20.078125 5.84375 10.023438 14.191406 5.972656 Z M 134.285156 4.285156 C 140.707031 4.300781 146.554688 7.972656 149.359375 13.75 L 176.132812 68.921875 C 178.660156 74.128906 178.328125 80.269531 175.253906 85.175781 C 172.183594 90.082031 166.804688 93.0625 161.015625 93.0625 L 107.121094 93.0625 C 101.320312 93.0625 95.925781 90.066406 92.859375 85.140625 C 89.792969 80.214844 89.484375 74.050781 92.042969 68.84375 L 119.164062 13.675781 C 121.996094 7.910156 127.867188 4.269531 134.285156 4.285156 Z M 195.570312 21.089844 C 195.570312 11.808594 203.09375 4.285156 212.371094 4.285156 L 236.148438 4.285156 C 236.613281 4.285156 237.082031 4.304688 237.546875 4.34375 L 244.230469 4.902344 C 246.238281 5.066406 249.789062 5.546875 253.523438 7.523438 C 272.988281 17.8125 272.988281 45.925781 253.523438 56.214844 C 249.789062 58.191406 246.238281 58.667969 244.230469 58.835938 L 237.546875 59.394531 C 237.082031 59.433594 236.613281 59.453125 236.148438 59.453125 L 229.175781 59.453125 L 229.175781 76.257812 C 229.175781 85.539062 221.652344 93.0625 212.371094 93.0625 C 203.09375 93.0625 195.570312 85.539062 195.570312 76.257812 Z M 301.136719 4.285156 C 310.417969 4.285156 317.9375 11.808594 317.9375 21.089844 L 317.9375 76.257812 C 317.9375 85.539062 310.417969 93.0625 301.136719 93.0625 C 291.855469 93.0625 284.335938 85.539062 284.335938 76.257812 L 284.335938 21.089844 C 284.335938 11.808594 291.855469 4.285156 301.136719 4.285156 Z M 134.105469 59.453125 L 134.183594 59.453125 L 134.144531 59.375 Z M 134.105469 59.453125 "/></g></svg>